<svg xmlns="http://www.w3.org/2000/svg" viewBox="0 0 83.73 114.56"><defs><style>.cls-1{fill:#fff;}.cls-2{fill:#ed6767;}.cls-3{fill:none;stroke:#ed6767;stroke-miterlimit:10;stroke-width:2px;}.cls-4{fill:#3498db;}</style></defs><title>Räv</title><g id="Layer_2" data-name="Layer 2"><g id="Layer_1-2" data-name="Layer 1"><path class="cls-1" d="M52.26,83.86s6.18,5.1,5.19,12.71a16.72,16.72,0,0,0,1.84-14.84l10.43,8.49L64.08,74.91l9.32,6s.16-6.52-4-10.2c6.91,3,15.33,10.69,8.39,30.3,0,0-4.91,12.56-23.69,12.56s-37.84-9.38-37.84-9.38S-7.37,87.84,4.17,68.93c0,0,4.17-7.42,21.85-10.4S38.3,38.9,38.3,38.9,31.92,35.54,20,32.55l-2-4.32c2.28-.53,4.7-3.91,4.7-3.91l12-.63s.25-4.84,10.67-8.22A41.44,41.44,0,0,1,50.08,4s6.13,3,6.13,5.86a89.94,89.94,0,0,0,13-8.25S75,13.29,64.93,26c0,0,1.47,6.1,14.61,5.62a33.75,33.75,0,0,1-16.82,3.23A18.66,18.66,0,0,0,74.26,37s-9.08,4.9-12.15,6.46-2.21,7.19-2.21,7.19l5,12.32-2.71,5.86c-13.13-1.55-16.93.36-16.93.36C49.29,75,51.46,79.87,52.26,83.86Zm-5.62-61c0-.94-1.25-1.71-2.78-1.71s-2.78.77-2.78,1.71,1.24,1.71,2.78,1.71S46.64,23.82,46.64,22.88Z"/><path class="cls-1" d="M69.43,70.69c4.13,3.68,4,10.2,4,10.2l-9.32-6,5.64,15.32L59.28,81.74a16.72,16.72,0,0,1-1.84,14.84c1-7.61-5.19-12.71-5.19-12.71-.8-4-3-8.83-7-14.69,0,0,3.8-1.91,16.93-.36A23.8,23.8,0,0,1,69.43,70.69Z"/><ellipse class="cls-2" cx="43.85" cy="22.88" rx="2.78" ry="1.71"/><path class="cls-1" d="M16.28,24.66l6.39-.34s-2.42,3.38-4.7,3.91Z"/><path class="cls-3" d="M18,28.24l2,4.32c11.91,3,18.29,6.34,18.29,6.34S43.7,55.53,26,58.52,4.17,68.93,4.17,68.93c-11.54,18.91,12.11,35.25,12.11,35.25s19.07,9.38,37.84,9.38S77.82,101,77.82,101c6.94-19.62-1.48-27.32-8.39-30.3"/><path class="cls-3" d="M62.23,68.81l2.71-5.86-5-12.32S59,45,62.11,43.44,74.26,37,74.26,37a18.66,18.66,0,0,1-11.54-2.15A33.75,33.75,0,0,0,79.54,31.6C66.4,32.08,64.93,26,64.93,26,75,13.29,69.23,1.56,69.23,1.56a89.94,89.94,0,0,1-13,8.25C56.21,6.94,50.08,4,50.08,4a41.44,41.44,0,0,0-4.77,11.53C34.89,18.86,34.64,23.7,34.64,23.7l-12,.63"/><path class="cls-3" d="M22.67,24.33s-2.42,3.38-4.7,3.91l-1.69-3.58Z"/><path class="cls-3" d="M69.43,70.69c4.13,3.68,4,10.2,4,10.2l-9.32-6,5.64,15.32L59.28,81.74a16.72,16.72,0,0,1-1.84,14.84c1-7.61-5.19-12.71-5.19-12.71-.8-4-3-8.83-7-14.69,0,0,3.8-1.91,16.93-.36A23.8,23.8,0,0,1,69.43,70.69Z"/><path class="cls-3" d="M52.26,83.86c4.39,21.88-32.13,18.45-32.13,18.45"/><line class="cls-3" x1="50.24" y1="13.62" x2="56.21" y2="9.81"/><path class="cls-3" d="M55.74,20.35s6.09-2,8.52-7.33c0,0-.87,9.94-4.26,11.76"/><path class="cls-4" d="M43.85,26.28s-4.54,6.23,0,7.15S43.85,26.28,43.85,26.28Z"/></g></g></svg>