<svg xmlns="http://www.w3.org/2000/svg" viewBox="0 0 138.29 114"><defs><style>.cls-1{fill:#fff;}.cls-2{fill:none;stroke:#ed6767;stroke-miterlimit:10;stroke-width:2px;}.cls-3{fill:#ed6767;}.cls-4{fill:#3498db;}</style></defs><title>Kanin</title><g id="Layer_2" data-name="Layer 2"><g id="Layer_1-2" data-name="Layer 1"><path class="cls-1" d="M136.22,60.39c1.71,1,1.11,3.29,0,5.42-7.61-1.59-.92-6.09-.92-6.09A5.15,5.15,0,0,0,136.22,60.39Z"/><path class="cls-1" d="M82.74,104.89a2.75,2.75,0,0,0,.42.78c1.94,2.54,3.58,6.2-2.31,7-6.35.91-8.88-.53-9.84-1.52a2.72,2.72,0,0,0-2-.79H20.32a2.37,2.37,0,0,1-.49,0c-2.91-.51-30.06-5.83-13.54-21.77a2.71,2.71,0,0,1,1.52-.74c2.73-.4,10.83-1,12.64,5.57C19,84.31,14,40,53.51,33.67c0,0,31-4.61,36.39,15.81l-.54-2.63a2.78,2.78,0,0,1,.52-2.28,24.34,24.34,0,0,1,5.84-5.36C85.29,33.69,65.21,21.53,67.49,10.75A2.37,2.37,0,0,1,69.61,8.9a24.77,24.77,0,0,1,13,2.64c-3.31-4.09-3.09-7.13-2.53-8.75a2.36,2.36,0,0,1,1.86-1.51c20.61-3.85,26,33.4,25.17,34.83,5.16.29,11.35,2.74,18.44,9.21a2.8,2.8,0,0,1,.57.74c1.09,2,6,10.76,9.22,13.66,0,0-6.69,4.5.92,6.09a26.7,26.7,0,0,1-2.31,3.64,2.79,2.79,0,0,1-1.7,1.06,8.73,8.73,0,0,1-6.52-1.14l-.43-.29a1.19,1.19,0,0,0-1.48.08c-1.38,1.36,1.93,4.43-.36,4.66-1.11.12-2.43.21-4,.29a10.9,10.9,0,0,0-3.88,1.28,9,9,0,0,0-4.52,5.94c-1.48,6.08-7.1,9.94-8,10.54l-.13.08,0,0L98,94.44a28.14,28.14,0,0,1,1.41,6.19h7.69s8.89,4.18-.31,11.09H94s-5.21,1.26-8.4-11l-1.43.73A2.8,2.8,0,0,0,82.74,104.89ZM20.74,95a9.52,9.52,0,0,0-.29-1.6C20.6,94.35,20.71,94.91,20.74,95Z"/><path class="cls-1" d="M112.39,97.71s13.39,5.84,0,14h-5.6c9.2-6.92.31-11.09.31-11.09H99.4A28.14,28.14,0,0,0,98,94.44L102.86,92l0,0v5.76Z"/><path class="cls-2" d="M135.33,59.72a5.15,5.15,0,0,0,.9.67c1.71,1,1.11,3.29,0,5.42"/><path class="cls-2" d="M101.76,42.23s-2.45-1.11-6-3"/><path class="cls-2" d="M107.09,36.11h0"/><path class="cls-2" d="M100.61,71.65s2.69,5.51,15,3.74"/><path class="cls-2" d="M106.79,111.73l0,0"/><path class="cls-2" d="M92.93,83.85A53.46,53.46,0,0,1,98,94.44"/><path class="cls-2" d="M135.33,59.72c-3.25-2.9-8.13-11.66-9.22-13.66a2.8,2.8,0,0,0-.57-.74c-7.09-6.47-13.28-8.91-18.44-9.21.82-1.42-4.56-38.68-25.17-34.83a2.36,2.36,0,0,0-1.86,1.51c-.56,1.62-.78,4.66,2.53,8.75a24.77,24.77,0,0,0-13-2.64,2.37,2.37,0,0,0-2.12,1.85c-2.28,10.79,17.8,22.95,28.24,28.47a24.34,24.34,0,0,0-5.84,5.36,2.78,2.78,0,0,0-.52,2.28l.54,2.63C84.47,29.06,53.51,33.67,53.51,33.67,14,40,19,84.31,20.45,93.43c-1.8-6.57-9.9-6-12.64-5.57a2.71,2.71,0,0,0-1.52.74c-16.53,15.94,10.62,21.26,13.54,21.77a2.37,2.37,0,0,0,.49,0H69.05a2.72,2.72,0,0,1,2,.79c1,1,3.49,2.43,9.84,1.52,5.89-.84,4.26-4.5,2.31-7a2.75,2.75,0,0,1-.42-.78,2.8,2.8,0,0,1,1.4-3.4l1.43-.73c3.19,12.22,8.4,11,8.4,11h12.82c9.2-6.92.31-11.09.31-11.09H99.4A28.14,28.14,0,0,0,98,94.44L102.86,92l0,0,.13-.08c.92-.6,6.54-4.46,8-10.54a9,9,0,0,1,4.52-5.94,10.9,10.9,0,0,1,3.88-1.28c1.57-.07,2.89-.17,4-.29,2.29-.23-1-3.31.36-4.66a1.19,1.19,0,0,1,1.48-.08l.43.29a8.73,8.73,0,0,0,6.52,1.14,2.79,2.79,0,0,0,1.7-1.06,26.7,26.7,0,0,0,2.31-3.64C128.64,64.22,135.33,59.72,135.33,59.72Z"/><path class="cls-2" d="M20.45,93.43a9.52,9.52,0,0,1,.29,1.6C20.71,94.91,20.6,94.35,20.45,93.43Z"/><path class="cls-2" d="M102.9,92v5.76h9.49s13.39,5.84,0,14h-5.6"/><line class="cls-2" x1="85.56" y1="100.76" x2="83.32" y2="92.41"/><path class="cls-2" d="M50.51,63.73s37.95,3.65,15.91,36.12c0,0,12.26-1,16.32,5"/><path class="cls-2" d="M82.59,11.54s16,12.13,20.85,25.91"/><ellipse class="cls-3" cx="114.53" cy="53.92" rx="3.13" ry="1.83"/><path class="cls-4" d="M111.4,56.19s-4.43,6.08,0,7S111.4,56.19,111.4,56.19Z"/></g></g></svg>