<svg xmlns="http://www.w3.org/2000/svg" viewBox="0 0 137.55 114"><defs><style>.cls-1{fill:#fff;}.cls-2{fill:#ed6767;}.cls-3{fill:none;stroke:#ed6767;stroke-miterlimit:10;stroke-width:2px;}.cls-4{fill:#3498db;}</style></defs><title>Kossa</title><g id="Layer_2" data-name="Layer 2"><g id="Layer_1-2" data-name="Layer 1"><path class="cls-1" d="M81.08,2.31h0A64.16,64.16,0,0,1,90.4,5.14,87.84,87.84,0,0,1,111.24,17s22.83.67,25.21,18.3c0,0-12,5.08-29.87-.93L95,94.36l-.19.15C91,89.95,82.46,86.77,72.51,86.77c-11.41,0-21,4.18-23.71,9.84l-.22-.06L32.94,35.15A47,47,0,0,1,1,41.2C.53,20,28.64,17.61,28.64,17.61,30.56,17.47,44.87,1.42,68.35,1h0A54.64,54.64,0,0,1,81.08,2.31ZM92.67,49.23c0-2.24-2.91-4.07-6.51-4.07s-6.5,1.82-6.5,4.07,2.91,4.07,6.5,4.07S92.67,51.48,92.67,49.23ZM64,49.23c0-2.24-2.91-4.07-6.5-4.07S51,47,51,49.23s2.91,4.07,6.51,4.07S64,51.48,64,49.23Z"/><path class="cls-1" d="M94.85,94.51A8.34,8.34,0,0,1,97,99.89C97,107.13,86,113,72.51,113S48,107.13,48,99.89a7.5,7.5,0,0,1,.77-3.28c2.72-5.66,12.3-9.84,23.71-9.84C82.46,86.77,91,89.95,94.85,94.51Zm-3.68,6.2c0-1.71-3.67-3.1-8.21-3.1s-8.2,1.39-8.2,3.1,3.67,3.11,8.2,3.11S91.17,102.43,91.17,100.71Zm-20.77,0c0-1.71-3.67-3.1-8.2-3.1S54,99,54,100.71s3.67,3.11,8.2,3.11S70.4,102.43,70.4,100.71Z"/><ellipse class="cls-2" cx="86.16" cy="49.24" rx="6.5" ry="4.07"/><ellipse class="cls-1" cx="82.97" cy="100.71" rx="8.2" ry="3.11"/><ellipse class="cls-1" cx="62.2" cy="100.71" rx="8.2" ry="3.11"/><ellipse class="cls-2" cx="57.53" cy="49.24" rx="6.5" ry="4.07"/><path class="cls-3" d="M94.85,94.51C91,89.95,82.46,86.77,72.51,86.77c-11.41,0-21,4.18-23.71,9.84A7.5,7.5,0,0,0,48,99.89C48,107.13,59,113,72.51,113S97,107.13,97,99.89A8.34,8.34,0,0,0,94.85,94.51Z"/><path class="cls-3" d="M48.59,96.55,32.94,35.15A47,47,0,0,1,1,41.2C.53,20,28.64,17.61,28.64,17.61"/><ellipse class="cls-3" cx="62.2" cy="100.71" rx="8.2" ry="3.11"/><ellipse class="cls-3" cx="82.97" cy="100.71" rx="8.2" ry="3.11"/><path class="cls-3" d="M81.09,2.31A64.16,64.16,0,0,1,90.4,5.14,87.84,87.84,0,0,1,111.24,17s22.83.67,25.21,18.3c0,0-12,5.08-29.87-.93L95,94.36"/><path class="cls-3" d="M68.35,1a54.64,54.64,0,0,1,12.73,1.3"/><path class="cls-3" d="M28.64,17.61C30.56,17.47,44.87,1.42,68.35,1"/><path class="cls-3" d="M56.48,19.52S50.33,6.27,68.35,1h0"/><path class="cls-3" d="M69.28,20.93S66.07,4.35,81.08,2.31h0"/><path class="cls-3" d="M82,19.52S80.3,8.07,90.4,5.14"/><path class="cls-3" d="M1,41.2S15,25.68,31.47,28"/><path class="cls-3" d="M134.86,35.29s-15.57-11-28-9.35"/><path class="cls-4" d="M57.53,57.21s-4.63,6.36,0,7.3S57.53,57.21,57.53,57.21Z"/></g></g></svg>