<svg xmlns="http://www.w3.org/2000/svg" viewBox="0 0 142.53 114"><defs><style>.cls-1{fill:#fff;}.cls-1,.cls-2{stroke:#ed6767;stroke-miterlimit:10;stroke-width:2px;}.cls-2{fill:none;}.cls-3{fill:#ed6767;}.cls-4{fill:#3498db;}</style></defs><title>Mink</title><g id="Layer_2" data-name="Layer 2"><g id="Layer_1-2" data-name="Layer 1"><path class="cls-1" d="M83.54,101.69l6.37.21s18.43-.76-.11-6.51"/><path class="cls-1" d="M114.25,1s12.94-.42,18.37,7.93c0,0,20,6.47,0,12.73,0,0-10.23,5.43-15,4.38,0,0-2.25-2.07-3.2,14.47a11.3,11.3,0,0,1-.89,3.85c-.62,1.43-1.62,4.89-3,13.21,0,0,.42,3.13-2.71,9.39s-18.51,36-32.08,39c0,0,1-1.17,19.56,1.75,0,0,10.23,7.31-7.72,4.8l-23.62-1.61a8.93,8.93,0,0,1-6.14-3.06c-5.53-6.38-12.43-8.42-56.38-19.92-1.66-.43,2.42-2.86,4.1-2.53,9,1.78,36.57,7.94,41.33-2.94,2.25-5.74,4.6-17.41,15.24-21.86C76.5,54.52,82.7,36,85.16,25.91a29.29,29.29,0,0,1,8.78-14.85C99.15,6.35,106.54,1.23,114.25,1Z"/><path class="cls-1" d="M83.08,48.7s-2.52,13,4,25c0,0-.26,15.43,4.43,3.5,0,0,4.92,7.82,2.32-1.39A46.4,46.4,0,0,1,92.46,58.2"/><path class="cls-2" d="M114.25,43.38"/><ellipse class="cls-3" cx="123.42" cy="13.2" rx="2.92" ry="1.67"/><path class="cls-1" d="M111.82,7.57s-10-.53-4,6.4"/><path class="cls-4" d="M121.49,14.86S117,21,121.49,22,121.49,14.86,121.49,14.86Z"/></g></g></svg>