<svg xmlns="http://www.w3.org/2000/svg" viewBox="0 0 207.94 165.93"><defs><style>.cls-1{fill:#ed6767;}.cls-1,.cls-3{stroke:#ed6767;}.cls-1,.cls-2,.cls-3{stroke-miterlimit:10;}.cls-2,.cls-3{fill:none;}.cls-2{stroke:#fff;}.cls-3{stroke-width:3.6px;}.cls-4{fill:#fff;}.cls-5{fill:#3498db;}</style></defs><title>Asset 47</title><g id="Layer_2" data-name="Layer 2"><g id="Layer_1-2" data-name="Layer 1"><path class="cls-1" d="M167.27.51s19.06-.61,27.05,11.68c0,0,29.51,9.53,0,18.75,0,0-15.06,8-22.13,6.46,0,0-3.32-3-4.71,21.3a16.63,16.63,0,0,1-1.31,5.66c-.91,2.11-2.39,7.2-4.43,19.45,0,0,.61,4.61-4,13.83S130.48,150.71,110.5,155c0,0,1.44-1.73,28.8,2.58,0,0,15.06,10.76-11.37,7.07l-34.79-2.37a13.15,13.15,0,0,1-9-4.5c-8.14-9.39-18.3-12.4-83-29.34-2.44-.64,3.56-4.21,6-3.72C20.39,127.35,61,136.42,68,120.39c3.32-8.45,6.78-25.63,22.44-32.19,21.26-8.9,30.4-36.11,34-51a43.14,43.14,0,0,1,12.93-21.86C145,8.38,155.93.83,167.27.51Z"/><path class="cls-1" d="M122.47,148.43l10,.66s24.39-.67-2.92-9.14"/><path class="cls-2" d="M121.37,70.74s-3.71,19.11,5.82,36.76c0,0-.39,22.73,6.53,5.16,0,0,7.24,11.51,3.42-2a68.33,68.33,0,0,1-1.95-25.87"/><path class="cls-3" d="M167.27,62.91"/><ellipse class="cls-4" cx="181.51" cy="18.67" rx="3.57" ry="2.24"/><path class="cls-2" d="M163.7,10.17s-14.78-.77-5.86,9.42"/><path class="cls-5" d="M181.09,21.68s-4.06,5.58,0,6.4S181.09,21.68,181.09,21.68Z"/></g></g></svg>